<mxfile host="Electron" agent="Mozilla/5.0 (Windows NT 10.0; Win64; x64) AppleWebKit/537.36 (KHTML, like Gecko) draw.io/26.2.2 Chrome/134.0.6998.178 Electron/35.1.2 Safari/537.36" version="26.2.2">
  <diagram id="C5RBs43oDa-KdzZeNtuy" name="Page-1">
    <mxGraphModel dx="1721" dy="1706" grid="1" gridSize="10" guides="1" tooltips="1" connect="1" arrows="1" fold="1" page="1" pageScale="1" pageWidth="827" pageHeight="1169" math="0" shadow="0">
      <root>
        <mxCell id="WIyWlLk6GJQsqaUBKTNV-0" />
        <mxCell id="WIyWlLk6GJQsqaUBKTNV-1" parent="WIyWlLk6GJQsqaUBKTNV-0" />
        <mxCell id="MAa_id4GODkYyRuKRBiz-32" style="edgeStyle=orthogonalEdgeStyle;rounded=0;orthogonalLoop=1;jettySize=auto;html=1;exitX=0.5;exitY=0;exitDx=0;exitDy=0;entryX=0.5;entryY=1;entryDx=0;entryDy=0;" parent="WIyWlLk6GJQsqaUBKTNV-1" source="MAa_id4GODkYyRuKRBiz-0" target="MAa_id4GODkYyRuKRBiz-31" edge="1">
          <mxGeometry relative="1" as="geometry" />
        </mxCell>
        <mxCell id="MAa_id4GODkYyRuKRBiz-0" value="Tank" style="html=1;whiteSpace=wrap;noLabel=0;expand=1;comic=0;resizeHeight=0;" parent="WIyWlLk6GJQsqaUBKTNV-1" vertex="1">
          <mxGeometry x="30" y="210" width="110" height="50" as="geometry" />
        </mxCell>
        <mxCell id="MAa_id4GODkYyRuKRBiz-13" style="edgeStyle=orthogonalEdgeStyle;rounded=0;orthogonalLoop=1;jettySize=auto;html=1;exitX=0;exitY=0.5;exitDx=0;exitDy=0;entryX=0.5;entryY=1;entryDx=0;entryDy=0;" parent="WIyWlLk6GJQsqaUBKTNV-1" source="MAa_id4GODkYyRuKRBiz-2" target="MAa_id4GODkYyRuKRBiz-0" edge="1">
          <mxGeometry relative="1" as="geometry" />
        </mxCell>
        <mxCell id="MAa_id4GODkYyRuKRBiz-27" style="edgeStyle=orthogonalEdgeStyle;rounded=0;orthogonalLoop=1;jettySize=auto;html=1;entryX=0.5;entryY=0;entryDx=0;entryDy=0;fillColor=#f8cecc;strokeColor=#b85450;" parent="WIyWlLk6GJQsqaUBKTNV-1" source="MAa_id4GODkYyRuKRBiz-2" target="MAa_id4GODkYyRuKRBiz-4" edge="1">
          <mxGeometry relative="1" as="geometry" />
        </mxCell>
        <mxCell id="ON_rqly2Lm6P_RDxt7Wj-2" style="edgeStyle=orthogonalEdgeStyle;rounded=0;orthogonalLoop=1;jettySize=auto;html=1;entryX=0;entryY=0.5;entryDx=0;entryDy=0;fillColor=#dae8fc;strokeColor=#6c8ebf;" parent="WIyWlLk6GJQsqaUBKTNV-1" source="MAa_id4GODkYyRuKRBiz-2" target="ON_rqly2Lm6P_RDxt7Wj-0" edge="1">
          <mxGeometry relative="1" as="geometry" />
        </mxCell>
        <mxCell id="MAa_id4GODkYyRuKRBiz-2" value="02.Ammo Rack" style="html=1;whiteSpace=wrap;" parent="WIyWlLk6GJQsqaUBKTNV-1" vertex="1">
          <mxGeometry x="150" y="450" width="110" height="50" as="geometry" />
        </mxCell>
        <mxCell id="MAa_id4GODkYyRuKRBiz-15" style="edgeStyle=orthogonalEdgeStyle;rounded=0;orthogonalLoop=1;jettySize=auto;html=1;entryX=0.5;entryY=1;entryDx=0;entryDy=0;" parent="WIyWlLk6GJQsqaUBKTNV-1" source="MAa_id4GODkYyRuKRBiz-4" target="MAa_id4GODkYyRuKRBiz-0" edge="1">
          <mxGeometry relative="1" as="geometry" />
        </mxCell>
        <mxCell id="MAa_id4GODkYyRuKRBiz-26" style="edgeStyle=orthogonalEdgeStyle;rounded=0;orthogonalLoop=1;jettySize=auto;html=1;exitX=0.5;exitY=1;exitDx=0;exitDy=0;entryX=0.5;entryY=0;entryDx=0;entryDy=0;fillColor=#f8cecc;strokeColor=#b85450;" parent="WIyWlLk6GJQsqaUBKTNV-1" source="MAa_id4GODkYyRuKRBiz-4" target="MAa_id4GODkYyRuKRBiz-8" edge="1">
          <mxGeometry relative="1" as="geometry" />
        </mxCell>
        <mxCell id="ON_rqly2Lm6P_RDxt7Wj-3" style="edgeStyle=orthogonalEdgeStyle;rounded=0;orthogonalLoop=1;jettySize=auto;html=1;entryX=0;entryY=0.5;entryDx=0;entryDy=0;fillColor=#dae8fc;strokeColor=#6c8ebf;" parent="WIyWlLk6GJQsqaUBKTNV-1" source="MAa_id4GODkYyRuKRBiz-4" target="ON_rqly2Lm6P_RDxt7Wj-0" edge="1">
          <mxGeometry relative="1" as="geometry" />
        </mxCell>
        <mxCell id="MAa_id4GODkYyRuKRBiz-4" value="03.Gun&lt;hr&gt;Fire,&amp;nbsp;&lt;span style=&quot;background-color: transparent; color: light-dark(rgb(0, 0, 0), rgb(255, 255, 255));&quot;&gt;Rotate&lt;/span&gt;" style="html=1;whiteSpace=wrap;" parent="WIyWlLk6GJQsqaUBKTNV-1" vertex="1">
          <mxGeometry x="150" y="550" width="110" height="50" as="geometry" />
        </mxCell>
        <mxCell id="MAa_id4GODkYyRuKRBiz-12" style="edgeStyle=orthogonalEdgeStyle;rounded=0;orthogonalLoop=1;jettySize=auto;html=1;entryX=0.5;entryY=1;entryDx=0;entryDy=0;" parent="WIyWlLk6GJQsqaUBKTNV-1" source="MAa_id4GODkYyRuKRBiz-5" target="MAa_id4GODkYyRuKRBiz-0" edge="1">
          <mxGeometry relative="1" as="geometry" />
        </mxCell>
        <mxCell id="MAa_id4GODkYyRuKRBiz-68" style="edgeStyle=orthogonalEdgeStyle;rounded=0;orthogonalLoop=1;jettySize=auto;html=1;exitX=0.5;exitY=0;exitDx=0;exitDy=0;fontFamily=Helvetica;fontSize=12;fontColor=default;" parent="WIyWlLk6GJQsqaUBKTNV-1" source="MAa_id4GODkYyRuKRBiz-5" edge="1">
          <mxGeometry relative="1" as="geometry">
            <mxPoint x="205.1428571428571" y="349.8571428571429" as="targetPoint" />
          </mxGeometry>
        </mxCell>
        <mxCell id="MAa_id4GODkYyRuKRBiz-74" value="" style="edgeStyle=orthogonalEdgeStyle;rounded=0;orthogonalLoop=1;jettySize=auto;html=1;fontFamily=Helvetica;fontSize=12;fontColor=default;" parent="WIyWlLk6GJQsqaUBKTNV-1" source="MAa_id4GODkYyRuKRBiz-5" target="MAa_id4GODkYyRuKRBiz-64" edge="1">
          <mxGeometry relative="1" as="geometry" />
        </mxCell>
        <mxCell id="ON_rqly2Lm6P_RDxt7Wj-1" style="edgeStyle=orthogonalEdgeStyle;rounded=0;orthogonalLoop=1;jettySize=auto;html=1;entryX=0;entryY=0.5;entryDx=0;entryDy=0;fillColor=#dae8fc;strokeColor=#6c8ebf;" parent="WIyWlLk6GJQsqaUBKTNV-1" source="MAa_id4GODkYyRuKRBiz-5" target="ON_rqly2Lm6P_RDxt7Wj-0" edge="1">
          <mxGeometry relative="1" as="geometry" />
        </mxCell>
        <mxCell id="MAa_id4GODkYyRuKRBiz-5" value="01.Engine&lt;hr&gt;Move" style="html=1;whiteSpace=wrap;" parent="WIyWlLk6GJQsqaUBKTNV-1" vertex="1">
          <mxGeometry x="150" y="350" width="110" height="50" as="geometry" />
        </mxCell>
        <mxCell id="MAa_id4GODkYyRuKRBiz-21" style="edgeStyle=orthogonalEdgeStyle;rounded=0;orthogonalLoop=1;jettySize=auto;html=1;exitX=0;exitY=0.5;exitDx=0;exitDy=0;entryX=0.5;entryY=1;entryDx=0;entryDy=0;" parent="WIyWlLk6GJQsqaUBKTNV-1" source="MAa_id4GODkYyRuKRBiz-7" target="MAa_id4GODkYyRuKRBiz-0" edge="1">
          <mxGeometry relative="1" as="geometry" />
        </mxCell>
        <mxCell id="ON_rqly2Lm6P_RDxt7Wj-7" style="edgeStyle=orthogonalEdgeStyle;rounded=0;orthogonalLoop=1;jettySize=auto;html=1;entryX=0;entryY=0.5;entryDx=0;entryDy=0;fillColor=#dae8fc;strokeColor=#6c8ebf;" parent="WIyWlLk6GJQsqaUBKTNV-1" source="MAa_id4GODkYyRuKRBiz-7" target="ON_rqly2Lm6P_RDxt7Wj-0" edge="1">
          <mxGeometry relative="1" as="geometry" />
        </mxCell>
        <mxCell id="MAa_id4GODkYyRuKRBiz-7" value="07.Radio" style="html=1;whiteSpace=wrap;" parent="WIyWlLk6GJQsqaUBKTNV-1" vertex="1">
          <mxGeometry x="150" y="970" width="110" height="50" as="geometry" />
        </mxCell>
        <mxCell id="MAa_id4GODkYyRuKRBiz-16" style="edgeStyle=orthogonalEdgeStyle;rounded=0;orthogonalLoop=1;jettySize=auto;html=1;entryX=0.5;entryY=1;entryDx=0;entryDy=0;" parent="WIyWlLk6GJQsqaUBKTNV-1" source="MAa_id4GODkYyRuKRBiz-8" target="MAa_id4GODkYyRuKRBiz-0" edge="1">
          <mxGeometry relative="1" as="geometry" />
        </mxCell>
        <mxCell id="ON_rqly2Lm6P_RDxt7Wj-4" style="edgeStyle=orthogonalEdgeStyle;rounded=0;orthogonalLoop=1;jettySize=auto;html=1;entryX=0;entryY=0.5;entryDx=0;entryDy=0;fillColor=#dae8fc;strokeColor=#6c8ebf;" parent="WIyWlLk6GJQsqaUBKTNV-1" source="MAa_id4GODkYyRuKRBiz-8" target="ON_rqly2Lm6P_RDxt7Wj-0" edge="1">
          <mxGeometry relative="1" as="geometry" />
        </mxCell>
        <mxCell id="MAa_id4GODkYyRuKRBiz-8" value="04.Turret&lt;hr&gt;Rotate" style="html=1;whiteSpace=wrap;" parent="WIyWlLk6GJQsqaUBKTNV-1" vertex="1">
          <mxGeometry x="150" y="660" width="110" height="50" as="geometry" />
        </mxCell>
        <mxCell id="MAa_id4GODkYyRuKRBiz-19" style="edgeStyle=orthogonalEdgeStyle;rounded=0;orthogonalLoop=1;jettySize=auto;html=1;entryX=0.5;entryY=1;entryDx=0;entryDy=0;" parent="WIyWlLk6GJQsqaUBKTNV-1" source="MAa_id4GODkYyRuKRBiz-9" target="MAa_id4GODkYyRuKRBiz-0" edge="1">
          <mxGeometry relative="1" as="geometry" />
        </mxCell>
        <mxCell id="MAa_id4GODkYyRuKRBiz-30" style="edgeStyle=orthogonalEdgeStyle;rounded=0;orthogonalLoop=1;jettySize=auto;html=1;exitX=1;exitY=0;exitDx=0;exitDy=0;entryX=1;entryY=1;entryDx=0;entryDy=0;fillColor=#f8cecc;strokeColor=#b85450;" parent="WIyWlLk6GJQsqaUBKTNV-1" source="MAa_id4GODkYyRuKRBiz-9" target="MAa_id4GODkYyRuKRBiz-5" edge="1">
          <mxGeometry relative="1" as="geometry">
            <Array as="points">
              <mxPoint x="320" y="800" />
              <mxPoint x="320" y="400" />
            </Array>
          </mxGeometry>
        </mxCell>
        <mxCell id="ON_rqly2Lm6P_RDxt7Wj-5" style="edgeStyle=orthogonalEdgeStyle;rounded=0;orthogonalLoop=1;jettySize=auto;html=1;entryX=0;entryY=0.5;entryDx=0;entryDy=0;fillColor=#dae8fc;strokeColor=#6c8ebf;" parent="WIyWlLk6GJQsqaUBKTNV-1" source="MAa_id4GODkYyRuKRBiz-9" target="ON_rqly2Lm6P_RDxt7Wj-0" edge="1">
          <mxGeometry relative="1" as="geometry" />
        </mxCell>
        <mxCell id="bWlWiwhrOa9eMaUlrAhz-15" style="edgeStyle=orthogonalEdgeStyle;rounded=0;orthogonalLoop=1;jettySize=auto;html=1;exitX=1;exitY=0.75;exitDx=0;exitDy=0;entryX=0;entryY=0.5;entryDx=0;entryDy=0;" edge="1" parent="WIyWlLk6GJQsqaUBKTNV-1" source="MAa_id4GODkYyRuKRBiz-9" target="bWlWiwhrOa9eMaUlrAhz-12">
          <mxGeometry relative="1" as="geometry" />
        </mxCell>
        <mxCell id="bWlWiwhrOa9eMaUlrAhz-16" style="edgeStyle=orthogonalEdgeStyle;rounded=0;orthogonalLoop=1;jettySize=auto;html=1;exitX=1;exitY=0.75;exitDx=0;exitDy=0;entryX=0;entryY=0.5;entryDx=0;entryDy=0;" edge="1" parent="WIyWlLk6GJQsqaUBKTNV-1" source="MAa_id4GODkYyRuKRBiz-9" target="bWlWiwhrOa9eMaUlrAhz-11">
          <mxGeometry relative="1" as="geometry" />
        </mxCell>
        <mxCell id="MAa_id4GODkYyRuKRBiz-9" value="05.Tracks&lt;hr&gt;UV Offset" style="html=1;whiteSpace=wrap;" parent="WIyWlLk6GJQsqaUBKTNV-1" vertex="1">
          <mxGeometry x="150" y="800" width="110" height="50" as="geometry" />
        </mxCell>
        <mxCell id="MAa_id4GODkYyRuKRBiz-18" style="edgeStyle=orthogonalEdgeStyle;rounded=0;orthogonalLoop=1;jettySize=auto;html=1;entryX=0.5;entryY=1;entryDx=0;entryDy=0;" parent="WIyWlLk6GJQsqaUBKTNV-1" source="MAa_id4GODkYyRuKRBiz-10" target="MAa_id4GODkYyRuKRBiz-0" edge="1">
          <mxGeometry relative="1" as="geometry" />
        </mxCell>
        <mxCell id="ON_rqly2Lm6P_RDxt7Wj-6" style="edgeStyle=orthogonalEdgeStyle;rounded=0;orthogonalLoop=1;jettySize=auto;html=1;entryX=0;entryY=0.5;entryDx=0;entryDy=0;fillColor=#dae8fc;strokeColor=#6c8ebf;" parent="WIyWlLk6GJQsqaUBKTNV-1" source="MAa_id4GODkYyRuKRBiz-10" target="ON_rqly2Lm6P_RDxt7Wj-0" edge="1">
          <mxGeometry relative="1" as="geometry" />
        </mxCell>
        <mxCell id="MAa_id4GODkYyRuKRBiz-10" value="06.Observation Device" style="html=1;whiteSpace=wrap;" parent="WIyWlLk6GJQsqaUBKTNV-1" vertex="1">
          <mxGeometry x="150" y="890" width="110" height="50" as="geometry" />
        </mxCell>
        <mxCell id="MAa_id4GODkYyRuKRBiz-23" style="edgeStyle=orthogonalEdgeStyle;rounded=0;orthogonalLoop=1;jettySize=auto;html=1;exitX=0;exitY=0.5;exitDx=0;exitDy=0;entryX=0.5;entryY=1;entryDx=0;entryDy=0;" parent="WIyWlLk6GJQsqaUBKTNV-1" source="MAa_id4GODkYyRuKRBiz-11" target="MAa_id4GODkYyRuKRBiz-0" edge="1">
          <mxGeometry relative="1" as="geometry" />
        </mxCell>
        <mxCell id="MAa_id4GODkYyRuKRBiz-29" style="edgeStyle=orthogonalEdgeStyle;rounded=0;orthogonalLoop=1;jettySize=auto;html=1;exitX=1;exitY=0.5;exitDx=0;exitDy=0;entryX=1;entryY=1;entryDx=0;entryDy=0;fillColor=#f8cecc;strokeColor=#b85450;" parent="WIyWlLk6GJQsqaUBKTNV-1" source="MAa_id4GODkYyRuKRBiz-11" target="MAa_id4GODkYyRuKRBiz-5" edge="1">
          <mxGeometry relative="1" as="geometry">
            <Array as="points">
              <mxPoint x="260" y="1070" />
              <mxPoint x="380" y="1070" />
              <mxPoint x="380" y="400" />
            </Array>
          </mxGeometry>
        </mxCell>
        <mxCell id="ON_rqly2Lm6P_RDxt7Wj-8" style="edgeStyle=orthogonalEdgeStyle;rounded=0;orthogonalLoop=1;jettySize=auto;html=1;entryX=0;entryY=0.5;entryDx=0;entryDy=0;fillColor=#dae8fc;strokeColor=#6c8ebf;" parent="WIyWlLk6GJQsqaUBKTNV-1" source="MAa_id4GODkYyRuKRBiz-11" target="ON_rqly2Lm6P_RDxt7Wj-0" edge="1">
          <mxGeometry relative="1" as="geometry" />
        </mxCell>
        <mxCell id="MAa_id4GODkYyRuKRBiz-11" value="08.Fuel Tank" style="html=1;whiteSpace=wrap;" parent="WIyWlLk6GJQsqaUBKTNV-1" vertex="1">
          <mxGeometry x="150" y="1060" width="110" height="50" as="geometry" />
        </mxCell>
        <mxCell id="MAa_id4GODkYyRuKRBiz-102" style="edgeStyle=orthogonalEdgeStyle;rounded=0;orthogonalLoop=1;jettySize=auto;html=1;entryX=0.5;entryY=1;entryDx=0;entryDy=0;fontFamily=Helvetica;fontSize=12;fontColor=default;" parent="WIyWlLk6GJQsqaUBKTNV-1" source="MAa_id4GODkYyRuKRBiz-31" target="MAa_id4GODkYyRuKRBiz-100" edge="1">
          <mxGeometry relative="1" as="geometry">
            <Array as="points">
              <mxPoint x="85" y="-110" />
              <mxPoint x="265" y="-110" />
            </Array>
          </mxGeometry>
        </mxCell>
        <mxCell id="MAa_id4GODkYyRuKRBiz-31" value="Land Object" style="html=1;whiteSpace=wrap;fillColor=#dae8fc;strokeColor=#6c8ebf;" parent="WIyWlLk6GJQsqaUBKTNV-1" vertex="1">
          <mxGeometry x="30" y="-50" width="110" height="50" as="geometry" />
        </mxCell>
        <mxCell id="MAa_id4GODkYyRuKRBiz-75" style="edgeStyle=orthogonalEdgeStyle;rounded=0;orthogonalLoop=1;jettySize=auto;html=1;entryX=1;entryY=0.5;entryDx=0;entryDy=0;fontFamily=Helvetica;fontSize=12;fontColor=default;" parent="WIyWlLk6GJQsqaUBKTNV-1" source="MAa_id4GODkYyRuKRBiz-64" target="MAa_id4GODkYyRuKRBiz-0" edge="1">
          <mxGeometry relative="1" as="geometry" />
        </mxCell>
        <mxCell id="MAa_id4GODkYyRuKRBiz-64" value="Rigidbody(?)" style="html=1;whiteSpace=wrap;comic=0;strokeColor=#d6b656;align=center;verticalAlign=middle;fontFamily=Helvetica;fontSize=12;fillColor=#fff2cc;" parent="WIyWlLk6GJQsqaUBKTNV-1" vertex="1">
          <mxGeometry x="210" y="230" width="110" height="50" as="geometry" />
        </mxCell>
        <mxCell id="MAa_id4GODkYyRuKRBiz-89" style="edgeStyle=orthogonalEdgeStyle;rounded=0;orthogonalLoop=1;jettySize=auto;html=1;entryX=1;entryY=0;entryDx=0;entryDy=0;fontFamily=Helvetica;fontSize=12;fontColor=default;" parent="WIyWlLk6GJQsqaUBKTNV-1" source="MAa_id4GODkYyRuKRBiz-76" target="MAa_id4GODkYyRuKRBiz-0" edge="1">
          <mxGeometry relative="1" as="geometry">
            <Array as="points">
              <mxPoint x="280" y="75" />
              <mxPoint x="280" y="210" />
            </Array>
          </mxGeometry>
        </mxCell>
        <mxCell id="MAa_id4GODkYyRuKRBiz-101" style="edgeStyle=orthogonalEdgeStyle;rounded=0;orthogonalLoop=1;jettySize=auto;html=1;entryX=0.5;entryY=1;entryDx=0;entryDy=0;fontFamily=Helvetica;fontSize=12;fontColor=default;" parent="WIyWlLk6GJQsqaUBKTNV-1" source="MAa_id4GODkYyRuKRBiz-76" target="MAa_id4GODkYyRuKRBiz-100" edge="1">
          <mxGeometry relative="1" as="geometry">
            <Array as="points">
              <mxPoint x="469" y="-110" />
              <mxPoint x="265" y="-110" />
            </Array>
          </mxGeometry>
        </mxCell>
        <mxCell id="MAa_id4GODkYyRuKRBiz-76" value="Controller" style="html=1;whiteSpace=wrap;comic=0;strokeColor=#6c8ebf;align=center;verticalAlign=middle;fontFamily=Helvetica;fontSize=12;fillColor=#dae8fc;" parent="WIyWlLk6GJQsqaUBKTNV-1" vertex="1">
          <mxGeometry x="414" y="-50" width="110" height="50" as="geometry" />
        </mxCell>
        <mxCell id="MAa_id4GODkYyRuKRBiz-79" style="edgeStyle=orthogonalEdgeStyle;rounded=0;orthogonalLoop=1;jettySize=auto;html=1;entryX=0.5;entryY=1;entryDx=0;entryDy=0;fontFamily=Helvetica;fontSize=12;fontColor=default;" parent="WIyWlLk6GJQsqaUBKTNV-1" source="MAa_id4GODkYyRuKRBiz-78" target="MAa_id4GODkYyRuKRBiz-76" edge="1">
          <mxGeometry relative="1" as="geometry" />
        </mxCell>
        <mxCell id="MAa_id4GODkYyRuKRBiz-78" value="AI Controller" style="html=1;whiteSpace=wrap;comic=0;strokeColor=default;align=center;verticalAlign=middle;fontFamily=Helvetica;fontSize=12;fontColor=default;fillColor=default;" parent="WIyWlLk6GJQsqaUBKTNV-1" vertex="1">
          <mxGeometry x="540" y="20" width="110" height="50" as="geometry" />
        </mxCell>
        <mxCell id="MAa_id4GODkYyRuKRBiz-82" style="edgeStyle=orthogonalEdgeStyle;rounded=0;orthogonalLoop=1;jettySize=auto;html=1;entryX=0.5;entryY=1;entryDx=0;entryDy=0;fontFamily=Helvetica;fontSize=12;fontColor=default;" parent="WIyWlLk6GJQsqaUBKTNV-1" source="MAa_id4GODkYyRuKRBiz-81" target="MAa_id4GODkYyRuKRBiz-76" edge="1">
          <mxGeometry relative="1" as="geometry" />
        </mxCell>
        <mxCell id="MAa_id4GODkYyRuKRBiz-81" value="Player Controller" style="html=1;whiteSpace=wrap;comic=0;strokeColor=default;align=center;verticalAlign=middle;fontFamily=Helvetica;fontSize=12;fontColor=default;fillColor=default;" parent="WIyWlLk6GJQsqaUBKTNV-1" vertex="1">
          <mxGeometry x="540" y="80" width="110" height="50" as="geometry" />
        </mxCell>
        <mxCell id="MAa_id4GODkYyRuKRBiz-91" style="edgeStyle=orthogonalEdgeStyle;rounded=0;orthogonalLoop=1;jettySize=auto;html=1;entryX=1;entryY=0.25;entryDx=0;entryDy=0;fontFamily=Helvetica;fontSize=12;fontColor=default;" parent="WIyWlLk6GJQsqaUBKTNV-1" source="MAa_id4GODkYyRuKRBiz-90" target="MAa_id4GODkYyRuKRBiz-0" edge="1">
          <mxGeometry relative="1" as="geometry" />
        </mxCell>
        <mxCell id="MAa_id4GODkYyRuKRBiz-90" value="Network&lt;div&gt;&lt;hr&gt;ID&lt;/div&gt;" style="html=1;whiteSpace=wrap;comic=0;strokeColor=#d6b656;align=center;verticalAlign=middle;fontFamily=Helvetica;fontSize=12;fillColor=#fff2cc;" parent="WIyWlLk6GJQsqaUBKTNV-1" vertex="1">
          <mxGeometry x="480" y="170" width="110" height="50" as="geometry" />
        </mxCell>
        <mxCell id="MAa_id4GODkYyRuKRBiz-98" style="edgeStyle=orthogonalEdgeStyle;rounded=0;orthogonalLoop=1;jettySize=auto;html=1;entryX=1;entryY=0.5;entryDx=0;entryDy=0;fontFamily=Helvetica;fontSize=12;fontColor=default;" parent="WIyWlLk6GJQsqaUBKTNV-1" source="MAa_id4GODkYyRuKRBiz-94" target="MAa_id4GODkYyRuKRBiz-78" edge="1">
          <mxGeometry relative="1" as="geometry" />
        </mxCell>
        <mxCell id="bWlWiwhrOa9eMaUlrAhz-36" style="edgeStyle=orthogonalEdgeStyle;rounded=0;orthogonalLoop=1;jettySize=auto;html=1;entryX=1;entryY=1;entryDx=0;entryDy=0;" edge="1" parent="WIyWlLk6GJQsqaUBKTNV-1" source="MAa_id4GODkYyRuKRBiz-94" target="MAa_id4GODkYyRuKRBiz-0">
          <mxGeometry relative="1" as="geometry">
            <Array as="points">
              <mxPoint x="140" y="300" />
            </Array>
          </mxGeometry>
        </mxCell>
        <mxCell id="MAa_id4GODkYyRuKRBiz-94" value="Team" style="html=1;whiteSpace=wrap;comic=0;strokeColor=default;align=center;verticalAlign=middle;fontFamily=Helvetica;fontSize=12;fontColor=default;fillColor=default;" parent="WIyWlLk6GJQsqaUBKTNV-1" vertex="1">
          <mxGeometry x="630" y="260" width="110" height="50" as="geometry" />
        </mxCell>
        <mxCell id="MAa_id4GODkYyRuKRBiz-100" value="Game Object" style="html=1;whiteSpace=wrap;comic=0;strokeColor=#6c8ebf;align=center;verticalAlign=middle;fontFamily=Helvetica;fontSize=12;fillColor=#dae8fc;" parent="WIyWlLk6GJQsqaUBKTNV-1" vertex="1">
          <mxGeometry x="210" y="-220" width="110" height="50" as="geometry" />
        </mxCell>
        <mxCell id="MAa_id4GODkYyRuKRBiz-104" style="edgeStyle=orthogonalEdgeStyle;rounded=0;orthogonalLoop=1;jettySize=auto;html=1;entryX=0.75;entryY=1;entryDx=0;entryDy=0;fontFamily=Helvetica;fontSize=12;fontColor=default;" parent="WIyWlLk6GJQsqaUBKTNV-1" source="MAa_id4GODkYyRuKRBiz-103" target="MAa_id4GODkYyRuKRBiz-0" edge="1">
          <mxGeometry relative="1" as="geometry">
            <Array as="points">
              <mxPoint x="685" y="330" />
              <mxPoint x="113" y="330" />
            </Array>
          </mxGeometry>
        </mxCell>
        <mxCell id="MAa_id4GODkYyRuKRBiz-103" value="Hit Point" style="html=1;whiteSpace=wrap;comic=0;strokeColor=#d6b656;align=center;verticalAlign=middle;fontFamily=Helvetica;fontSize=12;fillColor=#fff2cc;" parent="WIyWlLk6GJQsqaUBKTNV-1" vertex="1">
          <mxGeometry x="630" y="340" width="110" height="50" as="geometry" />
        </mxCell>
        <mxCell id="ON_rqly2Lm6P_RDxt7Wj-0" value="Module" style="html=1;whiteSpace=wrap;comic=0;strokeColor=#6c8ebf;align=center;verticalAlign=middle;fontFamily=Helvetica;fontSize=12;fillColor=#dae8fc;" parent="WIyWlLk6GJQsqaUBKTNV-1" vertex="1">
          <mxGeometry x="630" y="620" width="110" height="50" as="geometry" />
        </mxCell>
        <mxCell id="bWlWiwhrOa9eMaUlrAhz-2" value="" style="edgeStyle=orthogonalEdgeStyle;rounded=0;orthogonalLoop=1;jettySize=auto;html=1;entryX=0;entryY=0.5;entryDx=0;entryDy=0;" edge="1" parent="WIyWlLk6GJQsqaUBKTNV-1" source="bWlWiwhrOa9eMaUlrAhz-0" target="MAa_id4GODkYyRuKRBiz-0">
          <mxGeometry relative="1" as="geometry">
            <mxPoint x="-263.0000000000002" y="235" as="targetPoint" />
          </mxGeometry>
        </mxCell>
        <mxCell id="bWlWiwhrOa9eMaUlrAhz-0" value="Shell&lt;hr&gt;Raycast_Delta_Pos" style="html=1;whiteSpace=wrap;noLabel=0;expand=1;comic=0;resizeHeight=0;" vertex="1" parent="WIyWlLk6GJQsqaUBKTNV-1">
          <mxGeometry x="-468" y="210" width="110" height="50" as="geometry" />
        </mxCell>
        <mxCell id="bWlWiwhrOa9eMaUlrAhz-4" style="edgeStyle=orthogonalEdgeStyle;rounded=0;orthogonalLoop=1;jettySize=auto;html=1;entryX=0.5;entryY=1;entryDx=0;entryDy=0;" edge="1" parent="WIyWlLk6GJQsqaUBKTNV-1" source="bWlWiwhrOa9eMaUlrAhz-3" target="bWlWiwhrOa9eMaUlrAhz-0">
          <mxGeometry relative="1" as="geometry" />
        </mxCell>
        <mxCell id="bWlWiwhrOa9eMaUlrAhz-3" value="Rigidbody" style="html=1;whiteSpace=wrap;comic=0;strokeColor=#d6b656;align=center;verticalAlign=middle;fontFamily=Helvetica;fontSize=12;fillColor=#fff2cc;" vertex="1" parent="WIyWlLk6GJQsqaUBKTNV-1">
          <mxGeometry x="-413" y="290" width="110" height="50" as="geometry" />
        </mxCell>
        <mxCell id="bWlWiwhrOa9eMaUlrAhz-19" style="edgeStyle=orthogonalEdgeStyle;rounded=0;orthogonalLoop=1;jettySize=auto;html=1;entryX=0;entryY=0.5;entryDx=0;entryDy=0;" edge="1" parent="WIyWlLk6GJQsqaUBKTNV-1" source="bWlWiwhrOa9eMaUlrAhz-12" target="bWlWiwhrOa9eMaUlrAhz-18">
          <mxGeometry relative="1" as="geometry" />
        </mxCell>
        <mxCell id="bWlWiwhrOa9eMaUlrAhz-12" value="Right Track" style="html=1;whiteSpace=wrap;" vertex="1" parent="WIyWlLk6GJQsqaUBKTNV-1">
          <mxGeometry x="340" y="840" width="110" height="50" as="geometry" />
        </mxCell>
        <mxCell id="bWlWiwhrOa9eMaUlrAhz-17" style="edgeStyle=orthogonalEdgeStyle;rounded=0;orthogonalLoop=1;jettySize=auto;html=1;entryX=0;entryY=0.5;entryDx=0;entryDy=0;" edge="1" parent="WIyWlLk6GJQsqaUBKTNV-1" source="bWlWiwhrOa9eMaUlrAhz-11" target="bWlWiwhrOa9eMaUlrAhz-18">
          <mxGeometry relative="1" as="geometry">
            <mxPoint x="560" y="820" as="targetPoint" />
          </mxGeometry>
        </mxCell>
        <mxCell id="bWlWiwhrOa9eMaUlrAhz-11" value="Left Track" style="html=1;whiteSpace=wrap;" vertex="1" parent="WIyWlLk6GJQsqaUBKTNV-1">
          <mxGeometry x="340" y="770" width="110" height="50" as="geometry" />
        </mxCell>
        <mxCell id="bWlWiwhrOa9eMaUlrAhz-18" value="Track" style="html=1;whiteSpace=wrap;" vertex="1" parent="WIyWlLk6GJQsqaUBKTNV-1">
          <mxGeometry x="560" y="800" width="110" height="50" as="geometry" />
        </mxCell>
        <mxCell id="bWlWiwhrOa9eMaUlrAhz-21" style="edgeStyle=orthogonalEdgeStyle;rounded=0;orthogonalLoop=1;jettySize=auto;html=1;entryX=0.5;entryY=0;entryDx=0;entryDy=0;" edge="1" parent="WIyWlLk6GJQsqaUBKTNV-1" source="bWlWiwhrOa9eMaUlrAhz-20" target="MAa_id4GODkYyRuKRBiz-78">
          <mxGeometry relative="1" as="geometry" />
        </mxCell>
        <mxCell id="bWlWiwhrOa9eMaUlrAhz-20" value="Behavior Tree" style="html=1;whiteSpace=wrap;comic=0;strokeColor=default;align=center;verticalAlign=middle;fontFamily=Helvetica;fontSize=12;fontColor=default;fillColor=default;" vertex="1" parent="WIyWlLk6GJQsqaUBKTNV-1">
          <mxGeometry x="670" y="-50" width="110" height="50" as="geometry" />
        </mxCell>
        <mxCell id="bWlWiwhrOa9eMaUlrAhz-23" style="edgeStyle=orthogonalEdgeStyle;rounded=0;orthogonalLoop=1;jettySize=auto;html=1;entryX=0.25;entryY=1;entryDx=0;entryDy=0;" edge="1" parent="WIyWlLk6GJQsqaUBKTNV-1" source="bWlWiwhrOa9eMaUlrAhz-22" target="MAa_id4GODkYyRuKRBiz-0">
          <mxGeometry relative="1" as="geometry" />
        </mxCell>
        <mxCell id="bWlWiwhrOa9eMaUlrAhz-22" value="HUD" style="html=1;whiteSpace=wrap;noLabel=0;expand=1;comic=0;resizeHeight=0;" vertex="1" parent="WIyWlLk6GJQsqaUBKTNV-1">
          <mxGeometry x="-590" y="830" width="110" height="50" as="geometry" />
        </mxCell>
        <mxCell id="bWlWiwhrOa9eMaUlrAhz-26" style="edgeStyle=orthogonalEdgeStyle;rounded=0;orthogonalLoop=1;jettySize=auto;html=1;entryX=0.5;entryY=1;entryDx=0;entryDy=0;" edge="1" parent="WIyWlLk6GJQsqaUBKTNV-1" source="bWlWiwhrOa9eMaUlrAhz-24" target="bWlWiwhrOa9eMaUlrAhz-22">
          <mxGeometry relative="1" as="geometry" />
        </mxCell>
        <mxCell id="bWlWiwhrOa9eMaUlrAhz-24" value="Module UI" style="html=1;whiteSpace=wrap;noLabel=0;expand=1;comic=0;resizeHeight=0;" vertex="1" parent="WIyWlLk6GJQsqaUBKTNV-1">
          <mxGeometry x="-460" y="920" width="110" height="50" as="geometry" />
        </mxCell>
        <mxCell id="bWlWiwhrOa9eMaUlrAhz-27" style="edgeStyle=orthogonalEdgeStyle;rounded=0;orthogonalLoop=1;jettySize=auto;html=1;entryX=0.5;entryY=1;entryDx=0;entryDy=0;" edge="1" parent="WIyWlLk6GJQsqaUBKTNV-1" source="bWlWiwhrOa9eMaUlrAhz-25" target="bWlWiwhrOa9eMaUlrAhz-22">
          <mxGeometry relative="1" as="geometry" />
        </mxCell>
        <mxCell id="bWlWiwhrOa9eMaUlrAhz-25" value="Gun Marker" style="html=1;whiteSpace=wrap;noLabel=0;expand=1;comic=0;resizeHeight=0;" vertex="1" parent="WIyWlLk6GJQsqaUBKTNV-1">
          <mxGeometry x="-460" y="990" width="110" height="50" as="geometry" />
        </mxCell>
        <mxCell id="bWlWiwhrOa9eMaUlrAhz-29" style="edgeStyle=orthogonalEdgeStyle;rounded=0;orthogonalLoop=1;jettySize=auto;html=1;entryX=0.5;entryY=1;entryDx=0;entryDy=0;" edge="1" parent="WIyWlLk6GJQsqaUBKTNV-1" source="bWlWiwhrOa9eMaUlrAhz-28" target="bWlWiwhrOa9eMaUlrAhz-22">
          <mxGeometry relative="1" as="geometry" />
        </mxCell>
        <mxCell id="bWlWiwhrOa9eMaUlrAhz-28" value="Map" style="html=1;whiteSpace=wrap;noLabel=0;expand=1;comic=0;resizeHeight=0;" vertex="1" parent="WIyWlLk6GJQsqaUBKTNV-1">
          <mxGeometry x="-460" y="1150" width="110" height="50" as="geometry" />
        </mxCell>
        <mxCell id="bWlWiwhrOa9eMaUlrAhz-31" style="edgeStyle=orthogonalEdgeStyle;rounded=0;orthogonalLoop=1;jettySize=auto;html=1;entryX=0;entryY=1;entryDx=0;entryDy=0;" edge="1" parent="WIyWlLk6GJQsqaUBKTNV-1" source="bWlWiwhrOa9eMaUlrAhz-30" target="MAa_id4GODkYyRuKRBiz-0">
          <mxGeometry relative="1" as="geometry" />
        </mxCell>
        <mxCell id="bWlWiwhrOa9eMaUlrAhz-30" value="Camera&lt;hr&gt;FPS/TPS" style="html=1;whiteSpace=wrap;noLabel=0;expand=1;comic=0;resizeHeight=0;" vertex="1" parent="WIyWlLk6GJQsqaUBKTNV-1">
          <mxGeometry x="-660" y="430" width="110" height="50" as="geometry" />
        </mxCell>
        <mxCell id="bWlWiwhrOa9eMaUlrAhz-34" style="edgeStyle=orthogonalEdgeStyle;rounded=0;orthogonalLoop=1;jettySize=auto;html=1;entryX=0.5;entryY=1;entryDx=0;entryDy=0;" edge="1" parent="WIyWlLk6GJQsqaUBKTNV-1" source="bWlWiwhrOa9eMaUlrAhz-33" target="bWlWiwhrOa9eMaUlrAhz-22">
          <mxGeometry relative="1" as="geometry" />
        </mxCell>
        <mxCell id="bWlWiwhrOa9eMaUlrAhz-33" value="Central Marker" style="html=1;whiteSpace=wrap;noLabel=0;expand=1;comic=0;resizeHeight=0;" vertex="1" parent="WIyWlLk6GJQsqaUBKTNV-1">
          <mxGeometry x="-460" y="1070" width="110" height="50" as="geometry" />
        </mxCell>
        <mxCell id="bWlWiwhrOa9eMaUlrAhz-37" value="Land Point" style="html=1;whiteSpace=wrap;noLabel=0;expand=1;comic=0;resizeHeight=0;fillColor=#fff2cc;strokeColor=#d6b656;" vertex="1" parent="WIyWlLk6GJQsqaUBKTNV-1">
          <mxGeometry x="-160" y="90" width="110" height="50" as="geometry" />
        </mxCell>
      </root>
    </mxGraphModel>
  </diagram>
</mxfile>
